<svg width="70" height="62" viewBox="0 0 70 62" fill="none" xmlns="http://www.w3.org/2000/svg">
<path d="M61.9111 4.16284C61.1333 1.89766 58.9556 0.285156 56.3889 0.285156H13.6111C11.0444 0.285156 8.90555 1.89766 8.08889 4.16284L0 27.1602V57.8744C0 59.9861 1.75 61.7137 3.88889 61.7137H7.77778C9.91667 61.7137 11.6667 59.9861 11.6667 57.8744V54.0352H58.3333V57.8744C58.3333 59.9861 60.0833 61.7137 62.2222 61.7137H66.1111C68.25 61.7137 70 59.9861 70 57.8744V27.1602L61.9111 4.16284ZM13.6111 42.5173C10.3833 42.5173 7.77778 39.945 7.77778 36.7584C7.77778 33.5718 10.3833 30.9994 13.6111 30.9994C16.8389 30.9994 19.4444 33.5718 19.4444 36.7584C19.4444 39.945 16.8389 42.5173 13.6111 42.5173ZM56.3889 42.5173C53.1611 42.5173 50.5556 39.945 50.5556 36.7584C50.5556 33.5718 53.1611 30.9994 56.3889 30.9994C59.6167 30.9994 62.2222 33.5718 62.2222 36.7584C62.2222 39.945 59.6167 42.5173 56.3889 42.5173ZM7.77778 23.3209L13.6111 6.04409H56.3889L62.2222 23.3209H7.77778Z" fill="#239EDB"/>
</svg>
