<svg width="382" height="96" viewBox="0 0 382 96" fill="none" xmlns="http://www.w3.org/2000/svg">
<path d="M61.9111 21.1628C61.1333 18.8977 58.9556 17.2852 56.3889 17.2852H13.6111C11.0444 17.2852 8.90555 18.8977 8.08889 21.1628L0 44.1602V74.8744C0 76.9861 1.75 78.7137 3.88889 78.7137H7.77778C9.91667 78.7137 11.6667 76.9861 11.6667 74.8744V71.0352H58.3333V74.8744C58.3333 76.9861 60.0833 78.7137 62.2222 78.7137H66.1111C68.25 78.7137 70 76.9861 70 74.8744V44.1602L61.9111 21.1628ZM13.6111 59.5173C10.3833 59.5173 7.77778 56.945 7.77778 53.7584C7.77778 50.5718 10.3833 47.9994 13.6111 47.9994C16.8389 47.9994 19.4444 50.5718 19.4444 53.7584C19.4444 56.945 16.8389 59.5173 13.6111 59.5173ZM56.3889 59.5173C53.1611 59.5173 50.5556 56.945 50.5556 53.7584C50.5556 50.5718 53.1611 47.9994 56.3889 47.9994C59.6167 47.9994 62.2222 50.5718 62.2222 53.7584C62.2222 56.945 59.6167 59.5173 56.3889 59.5173ZM7.77778 40.3209L13.6111 23.0441H56.3889L62.2222 40.3209H7.77778Z" fill="#239EDB"/>
<path d="M126.562 60.5V43.875C126.562 42.1667 126.719 39.5208 127.031 35.9375L127.156 34.4062L126.5 34.3438C126.021 36.1562 125.562 37.7812 125.125 39.2188C124.688 40.6562 124.292 41.9062 123.938 42.9688L115.438 68H106.938L97.9688 42.9688C97.5729 42.0104 97.1875 40.9375 96.8125 39.75C96.4583 38.5417 96.1146 37.2292 95.7812 35.8125L95.4062 34.3438L94.75 34.4062C94.9583 36.3021 95.1042 38.0417 95.1875 39.625C95.2917 41.1875 95.3438 42.6042 95.3438 43.875V60.7188C96.9271 61.3021 98.0938 62.0833 98.8438 63.0625L98.2188 68H85.6875L85.0312 63.0625C85.8229 62.0833 87 61.3021 88.5625 60.7188V31.125C86.8125 30.5 85.5938 29.7188 84.9062 28.7812L85.5312 23.8438H100.125L109.469 49.625C110.073 51.0208 110.562 52.375 110.938 53.6875C111.333 54.9792 111.615 56.2083 111.781 57.375L111.969 58.4688H112.875C113.021 55.8854 113.792 52.9375 115.188 49.625L124.062 23.8438H138.406L139.062 28.7812C138.375 29.7188 137.156 30.5 135.406 31.125V60.4375C137.073 61.1042 138.25 61.8542 138.938 62.6875L138.281 68H123.688L123.062 62.75C123.708 61.9167 124.875 61.1667 126.562 60.5ZM180.25 44.8125C180.25 49.25 179.76 52.9792 178.781 56C177.802 59.0208 176.427 61.4479 174.656 63.2812C172.906 65.1146 170.844 66.4375 168.469 67.25C166.115 68.0625 163.552 68.4688 160.781 68.4688C156.969 68.4688 153.729 67.7188 151.062 66.2188C148.417 64.6979 146.396 62.2708 145 58.9375C143.625 55.6042 142.938 51.1979 142.938 45.7188C142.938 38.1354 144.646 32.5 148.062 28.8125C151.5 25.1042 156.167 23.25 162.062 23.25C168.104 23.25 172.646 24.9375 175.688 28.3125C178.729 31.6667 180.25 37.1667 180.25 44.8125ZM170.688 45.9062C170.688 35.6771 167.615 30.5625 161.469 30.5625C158.594 30.5625 156.396 31.6667 154.875 33.875C154.25 34.7917 153.75 36.0312 153.375 37.5938C153 39.1354 152.75 40.8438 152.625 42.7188C152.5 44.5938 152.51 46.4792 152.656 48.375C152.802 50.25 153.062 51.9896 153.438 53.5938C153.833 55.1979 154.354 56.5 155 57.5C156.625 60.0208 158.854 61.2812 161.688 61.2812C164.521 61.2812 166.729 60.1042 168.312 57.75C169.896 55.375 170.688 51.4271 170.688 45.9062ZM201.188 68H184.844L184.219 62.6875C184.781 61.9583 185.958 61.25 187.75 60.5625V31.3125C185.979 30.6875 184.802 29.9688 184.219 29.1562L184.844 23.8438H199.125C203.708 23.8438 207.677 24.7083 211.031 26.4375C214.385 28.1458 216.969 30.6875 218.781 34.0625C220.615 37.4167 221.531 41.5729 221.531 46.5312C221.531 51.4896 220.708 55.5521 219.062 58.7188C217.417 61.8854 215.073 64.2292 212.031 65.75C208.99 67.25 205.375 68 201.188 68ZM199.844 30.8125H196.969V61.0312H201.562C203.708 61.0312 205.552 60.625 207.094 59.8125C208.635 58.9792 209.823 57.5312 210.656 55.4688C211.51 53.4062 211.938 50.5208 211.938 46.8125C211.938 36.1458 207.906 30.8125 199.844 30.8125ZM259.312 52C259.312 57.5833 258.042 61.7292 255.5 64.4375C252.979 67.1458 248.885 68.5 243.219 68.5C239.427 68.5 236.406 67.9167 234.156 66.75C231.906 65.5625 230.292 63.75 229.312 61.3125C228.333 58.875 227.844 55.7708 227.844 52V31.3125C226.198 30.7083 225.021 29.9896 224.312 29.1562L224.938 23.8438H239.938L240.562 29.1562C239.875 29.9688 238.708 30.6875 237.062 31.3125V52.25C237.062 55.3333 237.562 57.6146 238.562 59.0938C239.562 60.5521 241.365 61.2812 243.969 61.2812C246.573 61.2812 248.406 60.5312 249.469 59.0312C250.531 57.5104 251.062 55.25 251.062 52.25V31.3125C249.292 30.6875 248.115 29.9688 247.531 29.1562L248.188 23.8438H262.188L262.844 29.1562C262.156 29.9688 260.979 30.6875 259.312 31.3125V52ZM289.719 31.4062C288.448 30.8438 286.531 30.5625 283.969 30.5625C281.406 30.5625 279.333 31.6667 277.75 33.875C276.167 36.0833 275.375 39.9688 275.375 45.5312C275.375 51.0729 276.135 55.0104 277.656 57.3438C279.177 59.6771 281.427 60.8438 284.406 60.8438C288.969 60.8438 293.062 60.1562 296.688 58.7812L299 64.4688C294.479 67.1562 289.167 68.5 283.062 68.5C276.958 68.5 272.552 66.7708 269.844 63.3125C267.135 59.8958 265.781 54.25 265.781 46.375C265.781 38.5208 267.458 32.7188 270.812 28.9688C274.167 25.1979 278.865 23.3125 284.906 23.3125C289.781 23.3125 294.417 24.6667 298.812 27.375V28.8125C298.812 29.2917 298.74 30.0312 298.594 31.0312C298.469 32.0104 298.271 33.0417 298 34.125C297.75 35.1875 297.438 36.0938 297.062 36.8438H291C290.396 35.6562 289.969 33.8438 289.719 31.4062ZM304.281 60.25L316.562 23.5312H325.344L338.094 60.4375C339.885 61.0833 341.135 61.8333 341.844 62.6875L341.219 68H326.25L325.594 62.6875C326.115 62.0208 327.146 61.3854 328.688 60.7812L326.938 55.4062H314.156L312.531 60.5625C314.031 61.1667 315.146 61.875 315.875 62.6875L315.219 68H300.625L300 62.6875C300.792 61.7083 302.219 60.8958 304.281 60.25ZM321 33.5625L320.938 32.4688H320.031C320.031 35.0521 319.5 38.0833 318.438 41.5625L315.938 49.5H325.094L322.656 41.6875C321.677 38.6875 321.125 35.9792 321 33.5625ZM378.281 36.7812C378.281 39.6771 377.375 42.1042 375.562 44.0625C373.75 46.0208 371.479 47.5104 368.75 48.5312C370.875 49.4271 372.281 50.5208 372.969 51.8125L377.625 60.7188C379.667 61.3646 381.042 62.1458 381.75 63.0625L381.094 68H370.281L362.906 52.3125C362.26 50.7292 361.479 49.9375 360.562 49.9375H356.406V60.1875C359.49 60.875 361.427 61.7083 362.219 62.6875L361.562 68H344.281L343.656 62.6875C344.219 61.9583 345.396 61.25 347.188 60.5625V31.3125C345.417 30.6875 344.24 29.9688 343.656 29.1562L344.281 23.8438H360.625C364.604 23.8854 367.896 24.3125 370.5 25.125C373.104 25.9167 375.052 27.25 376.344 29.125C377.635 30.9792 378.281 33.5312 378.281 36.7812ZM360.156 30.8125H356.406V42.9688H360.031C362.948 42.9688 365.115 42.5312 366.531 41.6562C367.969 40.7812 368.688 39.2083 368.688 36.9375C368.688 34.6875 367.958 33.1042 366.5 32.1875C365.062 31.2708 362.948 30.8125 360.156 30.8125Z" fill="#239EDB"/>
</svg>
