<svg width="50" height="44" viewBox="0 0 50 44" fill="none" xmlns="http://www.w3.org/2000/svg">
<path d="M44.2222 2.7775C43.6667 1.155 42.1111 0 40.2778 0H9.72222C7.88889 0 6.36111 1.155 5.77778 2.7775L0 19.25V41.25C0 42.7625 1.25 44 2.77778 44H5.55556C7.08333 44 8.33333 42.7625 8.33333 41.25V38.5H41.6667V41.25C41.6667 42.7625 42.9167 44 44.4444 44H47.2222C48.75 44 50 42.7625 50 41.25V19.25L44.2222 2.7775ZM9.72222 30.25C7.41667 30.25 5.55556 28.4075 5.55556 26.125C5.55556 23.8425 7.41667 22 9.72222 22C12.0278 22 13.8889 23.8425 13.8889 26.125C13.8889 28.4075 12.0278 30.25 9.72222 30.25ZM40.2778 30.25C37.9722 30.25 36.1111 28.4075 36.1111 26.125C36.1111 23.8425 37.9722 22 40.2778 22C42.5833 22 44.4444 23.8425 44.4444 26.125C44.4444 28.4075 42.5833 30.25 40.2778 30.25ZM5.55556 16.5L9.72222 4.125H40.2778L44.4444 16.5H5.55556Z" fill="lightgrey"/>
</svg>
